<svg width="40" height="40" viewBox="0 0 40 40" fill="none" xmlns="http://www.w3.org/2000/svg">
    <path d="M20 9.75618C14.3516 9.75618 9.75572 14.3521 9.75572 20.0006C9.75572 25.6492 14.3516 30.2445 20 30.2445C25.6484 30.2445 30.2443 25.6492 30.2443 20.0006C30.2443 14.3521 25.6484 9.75618 20 9.75618Z" fill="#4F4F4F"/>
    <path d="M20.0002 8.04505C20.3545 8.04505 20.6419 7.75752 20.6419 7.40324V0.641806C20.6419 0.287529 20.3545 0 20.0002 0C19.6459 0 19.3584 0.287529 19.3584 0.641806V7.40324C19.3584 7.75752 19.6459 8.04505 20.0002 8.04505Z" fill="#4F4F4F"/>
    <path d="M20.0002 31.9549C19.6459 31.9549 19.3584 32.2425 19.3584 32.5967V39.3582C19.3584 39.7125 19.6459 40 20.0002 40C20.3545 40 20.6419 39.7125 20.6419 39.3582V32.5967C20.6419 32.2425 20.3545 31.9549 20.0002 31.9549Z" fill="#4F4F4F"/>
    <path d="M10.6398 11.5467C10.765 11.6719 10.9293 11.7347 11.0936 11.7347C11.2579 11.7347 11.4222 11.6719 11.5474 11.5467C11.7983 11.2958 11.7983 10.8902 11.5474 10.6392L6.766 5.85839C6.51506 5.60744 6.10944 5.60744 5.85851 5.85839C5.60757 6.10934 5.60757 6.51495 5.85851 6.7659L10.6398 11.5467Z" fill="#4F4F4F"/>
    <path d="M29.3616 28.4538C29.1106 28.2029 28.7051 28.2029 28.4541 28.4538C28.2032 28.7048 28.2032 29.1105 28.4541 29.3614L33.2355 34.1422C33.3606 34.2674 33.5249 34.3303 33.6892 34.3303C33.8535 34.3303 34.0178 34.2674 34.1429 34.1422C34.3939 33.8913 34.3939 33.4856 34.1429 33.2346L29.3616 28.4538Z" fill="#4F4F4F"/>
    <path d="M28.9073 11.7347C29.0715 11.7347 29.2358 11.6719 29.361 11.5467L34.1423 6.7659C34.3933 6.51495 34.3933 6.10934 34.1423 5.85839C33.8914 5.60744 33.4857 5.60744 33.2348 5.85839L28.4535 10.6392C28.2025 10.8902 28.2025 11.2958 28.4535 11.5467C28.5793 11.6719 28.7435 11.7347 28.9073 11.7347Z" fill="#4F4F4F"/>
    <path d="M10.6398 28.4538L5.85851 33.2346C5.60757 33.4856 5.60757 33.8913 5.85851 34.1422C5.98365 34.2674 6.14795 34.3303 6.31225 34.3303C6.47655 34.3303 6.64085 34.2674 6.766 34.1422L11.5474 29.3614C11.7983 29.1105 11.7983 28.7048 11.5474 28.4538C11.2964 28.2029 10.8901 28.2029 10.6398 28.4538Z" fill="#4F4F4F"/>
    <path d="M39.3582 19.3582H32.597C32.2427 19.3582 31.9552 19.6457 31.9552 20C31.9552 20.3543 32.2427 20.6418 32.597 20.6418H39.3582C39.7125 20.6418 40 20.3543 40 20C40 19.6457 39.7125 19.3582 39.3582 19.3582Z" fill="#4F4F4F"/>
    <path d="M8.04548 20C8.04548 19.6457 7.75796 19.3582 7.40369 19.3582H0.64179C0.287522 19.3582 0 19.6457 0 20C0 20.3543 0.287522 20.6418 0.64179 20.6418H7.40304C7.75796 20.6418 8.04548 20.3549 8.04548 20Z" fill="#4F4F4F"/>
</svg>
