<svg width="53" height="40" viewBox="0 0 53 40" fill="none" xmlns="http://www.w3.org/2000/svg">
    <path d="M26.5 0C16.6168 0 7.54811 3.24194 0.474279 8.47427C0.219742 8.6644 0.0529526 8.94552 0.0106031 9.25579C-0.0317463 9.56604 0.0538132 9.88003 0.248459 10.1287C0.443106 10.3773 0.730895 10.5402 1.04851 10.5816C1.36613 10.623 1.68757 10.5394 1.94211 10.3493C8.60838 5.41842 17.1561 2.35294 26.5 2.35294C35.8439 2.35294 44.3917 5.41842 51.0579 10.3493C51.3124 10.5394 51.6339 10.623 51.9515 10.5816C52.2691 10.5402 52.5569 10.3773 52.7516 10.1287C52.9462 9.88003 53.0317 9.56604 52.9894 9.25579C52.947 8.94552 52.7803 8.6644 52.5258 8.47427C45.4519 3.24194 36.3831 0 26.5 0ZM26.5 11.1764C19.4179 11.1764 12.8148 13.2706 7.6817 17.3162C7.53967 17.4057 7.4185 17.5233 7.32608 17.6616C7.23366 17.7998 7.17205 17.9554 7.14528 18.1184C7.11849 18.2814 7.12712 18.4482 7.17061 18.6077C7.2141 18.7672 7.29147 18.916 7.3977 19.0444C7.50393 19.1729 7.63662 19.278 7.78718 19.353C7.93772 19.428 8.10275 19.4713 8.27153 19.4799C8.44031 19.4886 8.60906 19.4624 8.7668 19.4031C8.92456 19.3439 9.06777 19.2529 9.18716 19.136C13.8511 15.4601 19.9039 13.5294 26.5 13.5294C33.0961 13.5294 39.1489 15.4601 43.8128 19.136C43.9323 19.2529 44.0755 19.3439 44.2332 19.4031C44.391 19.4624 44.5597 19.4886 44.7284 19.4799C44.8972 19.4713 45.0623 19.428 45.2128 19.353C45.3634 19.278 45.4961 19.1729 45.6024 19.0444C45.7086 18.916 45.7859 18.7672 45.8295 18.6077C45.8729 18.4482 45.8815 18.2814 45.8547 18.1184C45.828 17.9554 45.7663 17.7998 45.6739 17.6616C45.5815 17.5233 45.4603 17.4057 45.3184 17.3162C40.1852 13.2706 33.5821 11.1764 26.5 11.1764ZM26.5 21.7647C22.1753 21.7647 18.0675 23.0877 14.9079 25.5331C14.6575 25.7287 14.4965 26.0131 14.4602 26.3242C14.4241 26.6354 14.5154 26.948 14.7145 27.1934C14.9136 27.439 15.2041 27.5974 15.5224 27.6342C15.8409 27.671 16.1612 27.5831 16.4134 27.3897C19.1105 25.3021 22.6855 24.1177 26.5 24.1177C30.3145 24.1177 33.8895 25.3021 36.5866 27.3897C36.8388 27.5831 37.1591 27.671 37.4776 27.6342C37.7959 27.5974 38.0864 27.439 38.2855 27.1934C38.4846 26.948 38.5759 26.6354 38.5398 26.3242C38.5035 26.0131 38.3425 25.7287 38.092 25.5331C34.9325 23.0877 30.8247 21.7647 26.5 21.7647ZM26.5 32.9412C24.5046 32.9412 22.8869 34.5213 22.8869 36.4706C22.8869 38.4198 24.5046 40 26.5 40C28.4955 40 30.1131 38.4198 30.1131 36.4706C30.1131 34.5213 28.4955 32.9412 26.5 32.9412Z" fill="#4F4F4F"/>
</svg>
