<svg width="48" height="48" viewBox="0 0 48 48" fill="none" xmlns="http://www.w3.org/2000/svg">
    <path d="M29 14H17C15.3 14 14 15.3 14 17V29C14 30.7 15.3 32 17 32H29C30.7 32 32 30.7 32 29V17C32 15.3 30.7 14 29 14ZM23 20C24.7 20 26 21.3 26 23C26 24.7 24.7 26 23 26C21.3 26 20 24.7 20 23C20 21.3 21.3 20 23 20ZM26.8 18C26.8 17.3 27.4 16.8 28 16.8C28.6 16.8 29.2 17.4 29.2 18C29.2 18.6 28.7 19.2 28 19.2C27.3 19.2 26.8 18.7 26.8 18ZM29 30H17C16.4 30 16 29.6 16 29V23H18C18 25.8 20.2 28 23 28C25.8 28 28 25.8 28 23H30V29C30 29.6 29.6 30 29 30Z" fill="#4F4F4F"/>
</svg>
