<svg width="48" height="48" viewBox="0 0 48 48" fill="none" xmlns="http://www.w3.org/2000/svg">
    <path d="M32.4213 17.693C33.4088 17.1155 34.0626 16.3273 34.3828 15.3248C33.4809 15.7895 32.5131 16.1272 31.5095 16.3273C30.6504 15.4471 29.5626 15 28.2586 15C26.9839 15 25.9072 15.4261 25.0284 16.2551C24.6041 16.6488 24.2686 17.1208 24.0424 17.6424C23.8163 18.1639 23.7044 18.7239 23.7134 19.2881C23.7134 19.6479 23.7611 19.9692 23.8564 20.2417C20.097 20.1194 16.9854 18.6338 14.5338 15.7743C14.1183 16.474 13.9105 17.1866 13.9105 17.9236C13.9105 19.4383 14.5815 20.6387 15.9209 21.5201C15.1571 21.4584 14.4837 21.2744 13.9105 20.9729C13.9105 22.0545 14.2442 22.958 14.9127 23.7532C15.5621 24.5281 16.4772 25.0603 17.4975 25.2564C17.1162 25.3495 16.7141 25.3937 16.301 25.3937C15.9197 25.3937 15.6496 25.3635 15.4895 25.2971C15.7706 26.1785 16.301 26.8934 17.0673 27.4406C17.8249 27.9886 18.7464 28.2917 19.6974 28.3057C18.0695 29.5224 16.2082 30.1243 14.1024 30.1243C13.5866 30.1243 13.2212 30.1173 13 30.0801C15.074 31.3631 17.3826 32 19.9369 32C22.5511 32 24.861 31.3689 26.8715 30.1068C28.8819 28.8517 30.3656 27.3032 31.3189 25.4799C32.2616 23.7156 32.7524 21.7638 32.7512 19.7841V19.2392C33.6299 18.6221 34.3906 17.8655 35 17.0026C34.177 17.3424 33.3096 17.5747 32.4213 17.693Z" fill="#4F4F4F"/>
</svg>
